<?xml version="1.0" encoding="utf-8"?>
<!-- Generator: Adobe Illustrator 18.0.0, SVG Export Plug-In . SVG Version: 6.00 Build 0)  -->
<!DOCTYPE svg PUBLIC "-//W3C//DTD SVG 1.1//EN" "http://www.w3.org/Graphics/SVG/1.1/DTD/svg11.dtd">
<svg version="1.1" id="Layer_1" xmlns="http://www.w3.org/2000/svg" xmlns:xlink="http://www.w3.org/1999/xlink" x="0px" y="0px"
	 viewBox="474.7 473.2 79.3 78.5" enable-background="new 474.7 473.2 79.3 78.5" xml:space="preserve">
<path d="M500.4,489.9c1.9-4.8,2.9-8.1,4.5-11.1c2.7-5,6.6-6.4,11.2-3.3c8.8,5.9,16.7,12.6,20.8,23.2c3,7.6,7.8,14.4,12.1,21.5
	c1.6,2.8,0.8,4.6-1.7,5.7c-4,1.6-8.2,2.6-12.2,4.3c-1.7,0.7-4.1,2.6-4,3.8c0.2,3.4-1.6,4.4-4.2,5.1c-13.7,4-27.5,8-41.2,12.2
	c-3.9,1.2-5.4,0-5.6-4.1c-0.4-6.6-1.2-13.3-2.1-19.8c-1.8-12.8,0.8-25.2,3.2-37.5c2.2-10.9,8.5-12.3,16.4-4.3
	C498.7,486.6,499.3,488.1,500.4,489.9z M501.5,515.5c-0.4-6-1.7-11.7-1-17.1c0.8-5.9-2.1-9.3-5.6-12.7c-5.2-5-9.1-4.3-10.5,2.7
	c-1.4,6.4-1.9,13.1-1.8,19.6c0.1,6.2,8,10.8,13.9,8.9C497.9,516.3,499.5,516,501.5,515.5z M515.9,506.7c1.5-0.5,2.7-1,4-1.3
	c5.4-1.4,9.3-7.1,6.6-11.9c-3.4-6.1-8.5-11.2-13.1-16.5c-0.7-0.8-3.2-0.8-4.5-0.3c-2.7,1.2-5.4,14.3-3.7,16.7
	C508.6,497.8,512.2,502.1,515.9,506.7z"/>
</svg>
