<?xml version="1.0" encoding="utf-8"?>
<!-- Generator: Adobe Illustrator 18.0.0, SVG Export Plug-In . SVG Version: 6.00 Build 0)  -->
<!DOCTYPE svg PUBLIC "-//W3C//DTD SVG 1.1//EN" "http://www.w3.org/Graphics/SVG/1.1/DTD/svg11.dtd">
<svg version="1.1" id="Layer_1" xmlns="http://www.w3.org/2000/svg" xmlns:xlink="http://www.w3.org/1999/xlink" x="0px" y="0px"
	 viewBox="321.8 455.8 384.2 116.1" enable-background="new 321.8 455.8 384.2 116.1" xml:space="preserve">
<path d="M701,456c3.7,6.7,3.5,13.2-0.8,19.7c-0.6,0.9-0.6,2.8,0,3.9c4.9,9.8,4.3,15.6-2.6,23.6c-0.8,0.9-1.3,2.7-1.1,3.9
	c1.9,10.4-0.4,15.6-9.4,21.3c-1.6,1-3.8,2.5-4,4c-1.2,10.7-8.4,14.7-17.6,17c-1.7,0.4-3.8,1.8-4.5,3.3c-4,8.4-11.5,10.1-19.6,9.8
	c-3.9-0.2-6.8,0.4-9.9,3c-6,5.2-13,3.4-19.9,1.9c-2.5-0.5-5.6-0.5-7.9,0.6c-7.3,3.5-13.8,1.4-20.6-1.4c-2.2-0.9-5.1-1.1-7.3-0.6
	c-7.3,1.9-13.3-0.8-19.3-4.4c-1.4-0.9-3.4-1.8-4.9-1.5c-8,2-14.6-1.1-21-5.2c-1.5-1-3.8-1.9-5.4-1.6c-7.6,1.7-13.8-1-19.4-5.5
	c-2.8-2.3-5.4-3.6-9.3-3.5c-6.2,0.2-11.5-2.8-16.1-6.9c-1.3-1.2-3.3-2.2-5-2.3c-7.4-0.1-13.4-3.2-18.9-7.9c-1.7-1.5-4.1-2.7-6.3-2.8
	c-7.3-0.6-12.8-4-17.7-9.2c-1.2-1.3-3.1-2.8-4.8-2.9c-7.5-0.2-13.2-4-18.5-8.8c-1.4-1.3-3.3-2.4-5-2.7c-6.8-0.8-12.3-4.1-16.8-8.9
	c-2.4-2.6-4.7-4.2-8.4-4.3c-6.8-0.2-11.4-4.6-15.7-9.5c-1.3-1.5-3.3-2.9-5.2-3.1c-6.5-0.7-11.8-3.2-15.9-8.3c-2.3-2.9-5.1-4-8.8-4.7
	c-4-0.7-7.7-3.3-11.6-5c0.7-0.3,1.3-1,2-1c8-0.1,16,0,24,0c-0.9,2.5-5.8,3.8-3,7.3c2.2,2.7,5.4,4.7,8.6,6.3c1.1,0.5,4.8-1.2,4.8-1.9
	c0.1-5.2,4.3-7.9,6.7-11.7c5,0,10,0,15,0c5,2.6,9.9,5.1,12.5,10.7c0.5,1.2,3,2.1,4.6,2.1c7.5-0.2,13.2,2.4,17.3,8.8
	c0.8,1.3,3.2,2.2,5,2.3c7.4,0.4,13.6,2.6,17.6,9.4c0.9,1.5,3.3,2.7,5.1,2.7c7.2,0.3,13.2,2.4,17.7,8.5c1,1.4,3.5,2.4,5.2,2.4
	c7.5-0.1,13.7,1.9,18.4,8.1c1,1.3,3.3,2.2,4.9,2.1c7.3-0.3,13.4,1.6,17.8,7.9c0.9,1.3,3.4,2.2,4.9,2c7.8-1,14.3,1.3,20.1,6.6
	c1.2,1.1,3.6,1.7,5.2,1.2c7.2-2,12.9,0.5,18.4,5c1.3,1,3.5,1.7,5.1,1.3c7.2-1.6,13.4,0.3,19.6,3.7c1.4,0.8,3.5,0.9,5.1,0.6
	c6.6-1.4,13.1-2.3,19.1,2.1c0.9,0.7,3.2,0.3,4.3-0.4c6-3.6,12-4.5,18.6-1.7c1,0.4,2.8-0.8,4-1.6c4.7-3.3,8.9-7.6,15.6-5.3
	c0.8,0.3,2.7-1.1,3.3-2.2c3.2-5.2,6.9-9.7,12.9-12c1.3-0.5,2.4-2.2,3.1-3.5c1.5-3.3,1.8-7.6,4.1-10c4.6-4.8,5.6-10.1,4.5-16.2
	c-0.1-0.5-0.1-1.1,0.1-1.5c4.6-7.2,2.1-14.4,0.4-21.8c-0.8-3.6,0.2-7.6,0.4-11.4c6,0,12,0,18,0c-3.3,1.3-6.6,2.5-9.8,3.9
	c-1.5,0.6-4.2,1.5-4.2,2.3c-0.1,3.2,0.2,6.5,1.2,9.5c0.3,0.8,3.4,0.9,5.2,0.9c1.7,0,3.6-0.9,5.2-0.6c5.9,1.3,10-2.2,8.5-8.1
	c-0.8-2.9-3.3-5.3-5.1-8C696.3,456,698.6,456,701,456z M376.9,483.8c2.2-1.3,4.4-2,4.4-2.8c0.2-4.7,3.3-7.7,5.9-11
	c0.4-0.5,0.4-1.6,0.2-2.3c-0.7-3.4-6.2-7.2-10.4-7.4c-4.1-0.1-6.1,1.9-6.1,6.1c0,0.8-1.3,1.6-1.5,2.5c-0.7,2.5-2.3,6-1.3,7.5
	C370.2,479.4,373.9,481.4,376.9,483.8z M517,549.2c4.9,0.3,7.3-1.9,6.3-5c-1.2-3.3,0.3-5.2,2-7.6c0.9-1.3,1.4-3.8,0.7-5.1
	c-2.3-4.1-9.9-5.9-13.8-3.5c-1.1,0.7-2,2.2-2.3,3.5c-0.7,2.7-1.1,5.6-1.2,8.4c0,1.8,0.2,4.4,1.4,5.4
	C512.4,547.3,515.5,548.5,517,549.2z M624.5,551.4c1.1-4.5-0.1-7.3-3.5-7.2c-3.3,0-6.9,1-9.8,2.5c-3.3,1.7-0.9,4.7-0.3,7.1
	c0.2,0.6,0.2,1.3,0.2,2c0.6,7,4.4,10.3,11.4,9.9c4.3-0.2,6.1-3.9,4.1-7.9C625.4,555.5,624.9,552.9,624.5,551.4z M468.9,505.9
	c-2.2,2.3-4.3,3.8-5.4,5.9c-1.3,2.5-2.1,5.4-2.6,8.2c-0.3,1.8-0.3,4.3,0.8,5.5c1.5,1.8,4,3,6.2,4c3.5,1.5,5.4,0.2,6.5-3.6
	c0.9-3,3.1-5.5,4.1-8.5c0.6-1.6,0.8-4.4-0.2-5.3C475.9,509.9,472.8,508.4,468.9,505.9z M692.9,512.4c-0.9-0.7-2.5-2.6-4.6-3.4
	c-2.3-0.8-5.2,0.1-7.4-0.9c-5.5-2.5-8.2-1.5-10.3,4.6c-1.2,3.4-0.9,5.8,3.3,6.5c2.9,0.5,5.8,1,6.8,4.7c0.2,0.8,2.1,1.8,3.2,1.7
	C687.8,525.3,693,518.6,692.9,512.4z M424.3,483.7c-4.5,1-6.8,2.2-7.3,6.3c-0.3,2.3-1.1,4.9-2.5,6.8c-1.9,2.5-1.6,4.2,0.7,5.8
	c2,1.4,4,3,6.3,3.8c3.3,1.2,6.3,1.1,6.4-3.8c0-1.4,1.7-2.6,2.2-4c0.9-2.6,3-6.1,2.1-7.7C430.6,487.9,427,486,424.3,483.7z
	 M446.9,495.9c-5.6,1-6.4,1.8-6.9,6.6c-0.1,1-0.3,2-0.7,2.8c-3.6,7.3-2.7,10.1,4.4,13.4c4.1,1.9,6.5,0.4,7.4-4.1
	c0.5-2.4,2.1-4.5,2.9-6.8c0.6-1.8,1.8-4.7,1-5.5C452.8,499.8,449.7,498,446.9,495.9z M594,566.1c6.3,0.3,7.8-2.2,6.2-6.7
	c-0.8-2.4-0.1-5.3-0.2-7.9c-0.1-1.8,0.3-4-0.7-5.2c-2.1-2.7-9.9-2.7-12.5-0.5c-3.3,2.8-2.3,16.5,1.5,18.4
	C590.4,565.3,592.9,565.7,594,566.1z M568.4,540.8c-6.9-0.2-8.4,1.3-8.3,6.7c0,1.6,0,3.5-0.7,4.9c-2.1,4.3,0.1,6.5,3.6,8.1
	c1.5,0.7,3,1.4,4.6,1.7c1.4,0.3,3.6,0.7,4.2-0.1c1.1-1.3,1.5-3.3,1.9-5.1c0.5-2.4,0.2-5.2,1.3-7.2c2-3.7,1.3-6-2.3-7.6
	C571,541.4,569,541,568.4,540.8z M646.1,559.8c1.5-0.8,3.7-1.6,5.5-2.9c4.7-3.3,4.5-5.6-0.2-8.8c-1.6-1.1-2.3-3.3-3.5-4.9
	c-1.3-1.7-3-5.1-3.8-4.9c-3.4,0.8-6.7,2.4-9.5,4.4c-0.7,0.5,0.4,3.7,0.9,5.6c0.4,1.6,1.6,3.1,1.7,4.6
	C637.3,558.4,641.5,558.7,646.1,559.8z M543.7,557.1c3.7-0.9,5-2.4,5.1-5.7c0.1-2.8,1.2-5.5,1.5-8.3c0.2-1.7,0.5-3.9-0.4-5
	c-3-4.2-11-5.7-13-1.9c-2.3,4.4-2,10.1-2.8,15.3c0,0.1,0.2,0.3,0.3,0.3C537.5,553.6,540.6,555.3,543.7,557.1z M399.9,472.6
	c-2.3,1.5-4.6,2.2-5.6,3.8c-1.6,2.5-2.4,5.6-3.2,8.5c-0.4,1.4-0.4,3.4,0.3,4.3c1.7,2,3.8,3.6,6.1,5c3.6,2.2,5.7,0.8,7.1-3.1
	c0.9-2.6,2.6-5,4.3-7.3c1.9-2.6,2.1-5.2-0.4-7C406.1,475.1,403.1,474.1,399.9,472.6z M665.8,545.3c5.1-0.2,10-3.9,11.1-7.9
	c0.7-2.7,0.4-4.7-3.1-5.5c-2.1-0.5-3.8-2.3-5.8-3.4c-2-1.1-4.7-3.6-5.8-3c-3,1.5-5.3,4.2-7.7,6.6c-0.3,0.3,0.1,1.6,0.6,2.2
	c2.4,3.1,4.9,6.1,7.5,9C663.6,544.5,665.2,545,665.8,545.3z M503.7,524.2c-2.4-2.1-4.6-4.8-7.3-6c-5.3-2.3-8.7,0.3-9.3,6
	c-0.2,2.1-0.7,4.4-1.9,6.1c-2.1,2.9-1,4.6,1.4,6.1c2,1.2,4,2.4,6.1,3.2c3.6,1.3,5-1.1,6-4c0.9-2.7,2-5.3,3-7.8
	C502.1,526.7,502.7,525.9,503.7,524.2z M684,483.5c-3.9,0.2-6,2.9-6.2,7.9c-0.2,4.1,1.5,5.6,5.6,5.5c2.5-0.1,5.1,1,7.6,1.6
	c1.1,0.3,2.3,1,3.2,0.8c2.9-0.7,5.7-6.9,4.6-10.6c-1-3.3-2-6.9-7.1-5.3C689.3,484.1,686.6,483.5,684,483.5z"/>
</svg>
