<?xml version="1.0" encoding="utf-8"?>
<!-- Generator: Adobe Illustrator 18.0.0, SVG Export Plug-In . SVG Version: 6.00 Build 0)  -->
<!DOCTYPE svg PUBLIC "-//W3C//DTD SVG 1.1//EN" "http://www.w3.org/Graphics/SVG/1.1/DTD/svg11.dtd">
<svg version="1.1" id="Layer_1" xmlns="http://www.w3.org/2000/svg" xmlns:xlink="http://www.w3.org/1999/xlink" x="0px" y="0px"
	 viewBox="404 378.9 220 269.1" enable-background="new 404 378.9 220 269.1" xml:space="preserve">
<path d="M513,379c-4.2,0.7-8.4,1.2-12.5,2.1c-1.7,0.3-3.6,0.8-5,1.9c-5.3,4.2-10.6,8-18,6.6c-1-0.2-2.8,0.9-3.5,1.9
	c-3.7,6.1-8.8,9.8-16.1,10.2c-1,0.1-2.2,1.6-2.8,2.8c-2.6,5.4-4.6,11.1-11.8,12.2c-0.8,0.1-1.8,2.3-1.9,3.5
	c-0.5,6.1-1.9,11.7-6.2,16.5c-1,1.1-0.8,3.3-0.9,5c-0.1,5.1-0.3,10.2-0.1,15.3c0.1,2.1,0.7,4.2,1.3,6.2c1.3,4.2,2.6,8.4,4.1,12.6
	c0.9,2.5,1.9,5.1,3.3,7.4c2.5,4.2,5.3,8.2,8.1,12.3c1.3,1.8,2.8,3.5,4.3,5.2c3.7,4.4,7.4,8.7,11.2,13.1c1.2,1.4,2.5,2.8,3.9,4.2
	c4.4,4.2,8.8,8.3,13.2,12.4c1.3,1.2,2.4,2.9,4,3.4c6.8,1.9,11.6,6.1,15.6,11.7c1.1,1.5,2.7,3,4.4,3.4c6.6,1.8,11.4,5.7,15.1,11.4
	c1,1.5,2.8,3.3,4.4,3.4c7.8,0.8,12.8,5.7,18,10.7c1.3,1.3,3.2,2.5,5,2.8c6.9,1.3,12.1,5.1,16.8,9.9c1.4,1.4,3.4,2.7,5.2,3
	c6.6,1,11.8,4.2,16.4,8.8c1.3,1.3,3.2,2.7,4.9,2.8c7.3,0.7,12.9,4.3,17.5,9.5c2.3,2.6,4.5,4.1,8,3.9c1.3-0.1,2.6,1.3,3.9,2.1
	c-0.9,0.9-1.8,1.9-2.7,2.8c-0.6,0.6-1.7,1.1-1.7,1.6c0.1,4.6-3,6.8-5.8,9.6c-0.9,0.9,0.2,4.9,1.5,6.8c1.1,1.5,3.7,2.3,5.7,2.7
	c3.4,0.6,3.4,2.3,2.7,5c-6.9-0.1-11.9-3.5-15.2-9.1c-1.5-2.6-3.1-3.4-6-3.1c-7.7,0.8-13.3-2.6-17.8-8.8c-1.1-1.5-3.4-2.7-5.2-2.8
	c-7.5-0.4-13.2-3.4-17.5-9.7c-1.1-1.7-4.1-2.8-6.2-2.9c-7.4-0.3-12.4-3.9-16.4-9.8c-1.2-1.7-3.7-3.4-5.7-3.5
	c-8.2-0.8-13.9-4.6-17.1-12.3c-0.6-1.5-2.7-3.1-4.2-3.2c-8.1-0.8-14-4.4-17.6-11.9c-0.6-1.2-2.4-2.3-3.8-2.5
	c-8-1.7-14.1-5.4-17-13.5c-0.5-1.4-2.5-2.7-4-3.1c-7.8-1.8-13.1-5.9-15.2-14c-0.3-1.4-2.3-2.8-3.8-3.3c-7.7-2.5-12.4-7.3-13.8-15.4
	c-0.3-1.5-1.7-3.2-3.1-3.9c-8.5-3.8-12.4-10.1-11.4-19.4c0.1-1.2-1.1-2.9-2.2-3.7c-8-5.8-10.4-12.3-7.9-21.7
	c0.4-1.3,0.1-3.3-0.7-4.4c-6.2-8.2-6.5-14.2-1-23.3c1-1.6,2.2-3.9,1.7-5.3c-3.5-9.4,0.2-16.2,7.2-21.9c2.6-2.1,3.5-4.3,3.6-7.7
	c0.3-7.7,5.3-12.7,11.9-15.2c5.6-2.2,8.5-5.8,9.9-11.2c1.7,0,3.3,0,5,0c-1.4,3.6-2.3,6.7,2.6,8.9c1.9,0.8,2.7,3.9,4.3,5.7
	c1.3,1.4,3.7,3.8,4.4,3.5c3.2-1.6,6.3-3.8,8.8-6.4c0.7-0.7-0.5-3.7-1.3-5.4c-1-2.2-2.6-4.1-3.9-6.2c4.3,0,8.7,0,13,0
	c0.3,5.4,2.2,7.7,6.1,6.2c3.3-1.2,5.9-4.1,8.9-6.2C499,379,506,379,513,379z M598.9,629.4c5.6,0.9,5.1-4.3,6.9-6.9
	c4.5-6.4,0.4-14.5-7.3-14.8c-2.8-0.1-7.2,0.3-6.1,4.3c0.9,3.2-0.3,4.4-1.9,6.1c-3,3.3-2.5,6.8,1.4,8.9
	C594,628.2,596.5,628.6,598.9,629.4z M531.8,591.8c3.8-0.9,10.8-13.4,9.1-16.3c-0.2-0.3-0.3-0.6-0.5-0.8c-2.4-1.7-4.8-3.5-7.4-4.8
	c-2.6-1.3-4.1-0.3-5.1,2.6c-0.6,1.8-2.2,3.7-3.8,4.7c-4.2,2.6-5.3,6.4-1.6,9.7C525,589.2,528.6,590.2,531.8,591.8z M451.4,404.7
	c-1.1-1.8-1.4-3-2.2-3.7c-2.6-2.5-5.2-4.9-8-7.2c-0.8-0.6-2.1-0.9-3.2-0.9c-5.3,0-8.4,3-10.2,7.9c-1.3,3.7-0.2,5.5,3.8,6.1
	c2.1,0.3,4.1,1.5,6.1,2.4c2.2,1,5.2,3.6,6.3,2.9C446.9,410.4,449,407.3,451.4,404.7z M424,455.8c6.1,0.6,8.2-2.7,7.4-8.7
	c-0.5-3.5-1.7-5.6-5.9-4.4c-2.8,0.8-5.7,1.7-8.2-1.1c-0.5-0.6-3.9,0.2-4.3,1.1c-1.4,3.1-2.8,6.4-2.9,9.7c-0.2,5.2,3.1,7.2,8,5.6
	C420.6,457.2,423,456.2,424,455.8z M413.6,425.7c0.9,4.4,2.7,5.7,6.5,5.4c2.4-0.2,5,0.1,7.1,0.9c4.7,1.8,7,0.8,9.1-4.9
	c1.8-5,1.3-5.9-4.2-7.4c-1.1-0.3-2.1-1-3.2-1.3c-3-0.8-6.9-2.9-8.7-1.8C417.3,418.5,415.7,422.6,413.6,425.7z M510.1,575.5
	c4.6-0.3,7.9-4.6,9-11.3c0.4-2.5-3.3-6.3-5.9-8.6c-2.6-2.3-5.1-1.4-6.2,2.4c-0.6,1.8-2.3,3.3-3.4,5c-1.5,2.2-4.3,4.8-3.9,6.6
	c0.4,2,3.8,3.5,6.1,4.9C507.1,575.2,508.9,575.2,510.1,575.5z M577.1,618c1.4-1.5,2.9-2.6,3.7-4.1c1.4-2.4,2.1-5.2,3.6-7.4
	c1.8-2.8,1.6-4.8-0.9-6.9c-3-2.5-5.9-5.1-10.2-3.1c-0.7,0.3-1,1.6-1.5,2.4c-1.3,2.3-2.3,4.8-4,6.8c-2.5,2.8-2.9,6,0.1,8.1
	C570.4,615.4,573.5,616.4,577.1,618z M414.7,477.3c1.1,1.4,2.8,4.2,5,6.3c2.3,2.1,4.3,0.5,6.5-1.2c2-1.6,4.7-2.2,6.9-3.6
	c4.2-2.6,2.7-6.1,1.4-9.6c-1.4-3.6-3.6-4.3-7-2.3c-1.8,1-4.1,2.2-6,1.9C415.8,468,415,471.4,414.7,477.3z M554.9,605.2
	c1.3-1.7,2.7-3.3,3.8-5.1c0.7-1.1,0.6-2.6,1.2-3.7c4-6.4,2.4-10.9-4.8-13.1c-2.6-0.8-3.8-0.1-5,2.5c-1.1,2.6-2.8,5.1-4.8,7
	c-3.1,3-3.1,7.2,0.8,9.4C548.5,603.5,551.2,604,554.9,605.2z M489.8,561.5c1.2-1.1,2.5-1.9,3.3-3.1c1.2-1.7,1.9-3.9,3.1-5.6
	c3.9-5.2,2.2-10.5-4.2-12.9c-2.6-1-4.4-0.4-4.7,2.4c-0.4,3-1.9,4.3-4.7,5.4c-5.2,2-5.7,7.1-1,10.3
	C483.8,559.5,486.7,560.2,489.8,561.5z M450.5,528.5c1.9-1.7,3.1-2.6,4.1-3.7c1.4-1.6,2.2-3.8,3.8-5.2c4.6-3.8,3.8-10.8-2-12.9
	c-1.2-0.4-3.2,0.2-4.4,1c-2.9,2-6.1,3.9-8.1,6.7c-1.5,2-2.5,5.9-1.5,7.7C444,524.7,447.5,526.2,450.5,528.5z M434.9,507.5
	c0.5-0.4,1.8-1.1,2.9-2.1c1.7-1.6,3.2-3.3,4.8-4.9c1.4-1.5,4.2-3.8,3.9-4.6c-1.3-3-4.5-8-5.6-7.7c-5,1.5-10.9,3.5-14,7.3
	C423.2,499.9,427.8,506.7,434.9,507.5z M468.9,545c1.5-0.9,3-1.3,3.9-2.3c2.1-2.3,3.8-5,5.7-7.4c2.2-2.8,0.9-5.2-1.1-7
	s-4.7-3.1-7.1-4.4c-0.1-0.1-1.2,1.4-1.6,2.2c-1.3,2.5-2.5,4.5-5.8,5.3c-4.5,1.1-5.3,7-1.6,9.9C463.4,542.9,466.2,543.7,468.9,545z"
	/>
</svg>
