<?xml version="1.0" encoding="utf-8"?>
<!-- Generator: Adobe Illustrator 18.0.0, SVG Export Plug-In . SVG Version: 6.00 Build 0)  -->
<!DOCTYPE svg PUBLIC "-//W3C//DTD SVG 1.1//EN" "http://www.w3.org/Graphics/SVG/1.1/DTD/svg11.dtd">
<svg version="1.1" id="Layer_1" xmlns="http://www.w3.org/2000/svg" xmlns:xlink="http://www.w3.org/1999/xlink" x="0px" y="0px"
	 viewBox="460.3 483.4 102.9 63.6" enable-background="new 460.3 483.4 102.9 63.6" xml:space="preserve">
<path fill="#040304" d="M460.5,531.2c8-4.4,17.8-9.3,25.4-14.3c2.9-1.9,4.3-3.8,3.9-7.6c-0.5-5.3,0.6-10.6,3-15.5
	c5.6-11.5,18.2-13.9,27.7-5.2c3.7,3.4,6.2,7.7,7.6,12.5c-1.2,1.3-2.7,2-4.3,2.3c-4.9,1.1-8.4,3.6-9.8,8.6c-1.6,0.6-2.7-1-4.2-0.9
	c-5.4,0.5-10.8,0.2-16.4,0c4.2,4.5,11.6,4.8,20.3,1.1c2.1-1.3,3.7,0.5,5.5,0.8c0.5,0.2,0.9,0.5,1.3,0.8c2.4,3.1,3.4,6.7,4.5,10.4
	c0.9,3,2.5,5.8,4,8.5c0.9,1.5,2.2,3,1,5c-5.4,3-11,2.6-16.9,1.6c-4.6-0.8-9.2-0.6-13.8,0.8c-8.6,2.7-17.3,2.2-26,0.1
	C468.5,539,460.5,532.2,460.5,531.2z"/>
<path fill="#080708" d="M546,531.8c-0.3,0.4-0.7,0.8-1,1.2c-0.9,0.8-2,0.7-2.7,0c-5.1-4.1-11-7.6-13.2-14.4
	c-0.9-2.9-2.6-5.4-4.4-7.7c-0.5-3.6,0.7-6.4,4.1-8c0.1,2.3,1.6,2.8,3.6,3.1c7.3,1.1,14.5,1.2,21.8,0.4c5.2-0.6,6.2,1,4.6,6
	c-1.2,3.6-4.8,5.4-5.8,9.1c-1.7,2.3-3.5,0.7-5.2,0.1c-5.3-1.7-10.2-4.5-15.8-7.3c2.1,6.7,6.7,10.1,11.3,13.5
	C544.6,528.9,547.2,529.2,546,531.8z"/>
<path fill="#3E1251" d="M525,511c3.6,0.4,4,3.7,4.8,6.1c2.6,7.7,8.9,11.8,15.2,15.9c-1,5.5-7.4,4.5-10.1,8.1
	c-0.2,0.3-3.6-1.7-4.9-3.4c-4.5-7.5-7.2-15.7-10.2-23.8c1.1-1.6,2.8-2.2,4.5-2.9C524.5,511,524.8,511,525,511z"/>
<path fill="#3E1251" d="M546,531.8c-2.9-3.4-7.2-5-10.2-8.3c-2.9-3.2-4.7-6.6-5.6-11.4c7.9,3.5,14.6,8.4,22.9,9.4l0,0
	c0.4,1.7,2.4,0.5,3.1,1.6c2.5,0.6,4.8,1.7,7,3.2c-1.9,3.2-5.8,3.8-8.1,6.1C551.3,536.3,549,532.4,546,531.8z"/>
<path fill="#39104B" d="M528.8,503c-1.4,2.6-3.4,5-3.8,8l0,0c-1.9,1.2-4.2,1.6-6,3c-2.2,0.6-3.5-1.1-5.1-2v0.1
	c-1.3-5.5,2.1-8,6.6-8.9c2.5-0.6,4.7-2.5,7.5-2C528.8,501.6,529,502.2,528.8,503z"/>
<path fill="#080708" d="M556.1,523.1c-1.2-0.2-2.6,0-3.1-1.6C554.3,521.7,555.8,521.3,556.1,523.1z"/>
<path fill="#39104B" d="M514,512c-1.1,4.9-5.4,3.5-8.5,3.9c-4.9,0.6-10,0.6-14-3.1c-0.7-0.7-0.7-1.9-0.2-2.8
	c0.6-1.1,1.7-0.9,2.6-0.7c5.6,1.3,11.1,1.4,16.7,0.1C513.1,508.6,512.7,511.3,514,512L514,512z"/>
<path fill="#080708" d="M519.1,514c1.4-2.2,3.5-2.9,6-3c-1.2,2-3.1,2.7-5.2,3C519.6,514,519.3,514,519.1,514z"/>
</svg>
