<?xml version="1.0" encoding="utf-8"?>
<!-- Generator: Adobe Illustrator 18.0.0, SVG Export Plug-In . SVG Version: 6.00 Build 0)  -->
<!DOCTYPE svg PUBLIC "-//W3C//DTD SVG 1.1//EN" "http://www.w3.org/Graphics/SVG/1.1/DTD/svg11.dtd">
<svg version="1.1" id="Layer_1" xmlns="http://www.w3.org/2000/svg" xmlns:xlink="http://www.w3.org/1999/xlink" x="0px" y="0px"
	 viewBox="0 0 124 260.5" enable-background="new 0 0 124 260.5" xml:space="preserve">
<path d="M44,2.6c3.6,1.1,7.3,2.2,10.9,3.2C55.8,6,56.9,6,57.7,5.7C66.5,2.6,76,7.8,78.5,16.8c0.6,2.2,2.5,4.2,4.2,5.9
	c8.5,8.6,8.6,12.2,0,20.5c-0.6,0.6-0.9,1.4-1.7,2.5c1,0.8,1.9,2.2,3,2.2c5.4,0.4,4.5,5.8,6.9,8.5c0.2,0.3,0.2,1.2-0.1,1.4
	C86.7,60.6,89,64.4,89,68c0,2.9-2.1,5.9-2.1,8.9c0,5.9,0.4,11.9,1.3,17.8c2,13,4.6,25.8,6.5,38.8c1,7.1,0.4,14.5,1.7,21.6
	c1.1,5.6,2.6,12.6,6.6,15.8c8.5,6.8,11.4,16.7,16.7,25.1c5.6,8.9,3.9,15.3-3.8,22.7c-0.1,0.1-0.3,0.2-0.4,0.3
	c-7.1,7.7-15.4,11.6-26.6,7.1c-0.1,2.7-0.5,4.7-0.3,6.7c0.8,6.9,1.8,13.8,2.9,20.7c0.5,3.3,0.1,5.3-3.8,4.9c-1.3-0.1-2.7,0.1-4,0.2
	c-4,0.5-4.8-1.6-4.6-5.1c0.2-3.3-0.1-6.5,0.1-9.8c0.1-1.7,0.5-3.5,1-5.2c1.6-5.6,3.9-11-1.6-16c-2.5-2.2-3-5.4-1.6-8.7
	c0.5-1.2,1.2-2.6,1.1-3.8c-0.7-8.9-1.4-17.8-2.4-26.7c-1-8.3-2.2-16.7-3.5-25c-1.3-8.8-2.7-17.7-4.1-26.5c-0.5-0.2-1.1-0.5-1.6-0.7
	c-2,2.8-4.2,5.5-6,8.4c-5.8,9.7-11.4,19.5-17,29.4c-5.8,10.4-11.4,20.8-14.3,32.6c-1.7,7.3-6.1,13.9-9.4,20.8
	c-2.6,5.4-5.1,10.4-2.2,17c1.1,2.5-1.9,6.8-3.2,10.2c-0.7,1.6-2.8,3-2.7,4.5c0.1,5-2.7,5.8-6.7,5.5c-1.6-0.1-3.3,0-5,0c0-2,0-4,0-6
	c0.9-1.3,2.3-2.5,2.7-4c2.3-7.8,4.5-15.6,6.4-23.5c3.7-15.3,6.6-30.8,11-45.8c4.5-15.3,10.3-30.1,15.8-45.1c1.4-3.9,0.2-5.7-3.6-6.9
	c-2.9-0.9-5.5-2.9-8.2-4.4c0.5-0.4,1-0.9,1.4-1.3c0.2-2.2,0.7-4.5,0.5-6.7c-0.3-3.6-1.2-7.2-1.5-10.8c-0.6-6.6-2.6-13.6-1.2-19.8
	C26.1,72.9,31,61,34.7,48.8c1.8-5.7,5.1-9.3,10.8-11.3c7-2.5,7.3-6.4,1.3-11c-4.1-3.1-8.4-6-12.4-9.2c-5-3.9-4.3-10.5,1.4-13.4
	c1-0.5,3-1.3,4.5-1.4C43.3,2.3,42.4,2.3,44,2.6z M37.4,122.1c1.9-2.1,4.7-3.7,4.8-5.4c0.4-8.7,0.5-17.5-0.1-26.2
	c-0.3-3.8-2.8-7.4-4.6-11.9C30.8,88.3,30.9,112.5,37.4,122.1z M88.4,175.1c0.2,0,0.4,0,0.7,0c0-8.9,0-17.8,0-26.7
	c-0.2,0-0.4,0-0.7,0C88.4,157.2,88.4,166.2,88.4,175.1z"/>
</svg>
