<?xml version="1.0" encoding="utf-8"?>
<!-- Generator: Adobe Illustrator 18.0.0, SVG Export Plug-In . SVG Version: 6.00 Build 0)  -->
<!DOCTYPE svg PUBLIC "-//W3C//DTD SVG 1.1//EN" "http://www.w3.org/Graphics/SVG/1.1/DTD/svg11.dtd">
<svg version="1.1" id="Layer_1" xmlns="http://www.w3.org/2000/svg" xmlns:xlink="http://www.w3.org/1999/xlink" x="0px" y="0px"
	 viewBox="0 0 1024 1024" enable-background="new 0 0 1024 1024" xml:space="preserve">
<path d="M742.8,591.5c44.3,64.2,125.3,96.3,146.7,178.8c1.5,4.6,3.1,10.7,6.1,13.8c16.8,16.8,74.9-1.5,44.3,52
	c-27.5,48.9-30.6,113.1-105.5,128.4c-97.8,19.9-194.1,39.7-295,19.9c-56.5-10.7-84.1-41.3-93.2-94.8c-7.6-45.9-13.8-90.2-18.3-136
	c-12.2-97.8-39.7-189.5-97.8-269c-45.9-62.7-90.2-59.6-114.6,13.8c-36.7,107-64.2,217-97.8,327.1c-6.1,21.4,0,62.7-35.2,55
	c-38.2-9.2-13.8-42.8-9.2-64.2c41.3-175.8,77.9-350,59.6-534.9c-12.2-113.1,77.9-188,158.9-256.8c30.6-24.5,38.2,6.1,50.4,22.9
	C395.8,131.4,432.5,224.7,457,321c22.9,93.2,61.1,177.3,110,258.3c21.4,35.2,48.9,65.7,91.7,74.9
	C709.2,666.4,724.4,654.1,742.8,591.5z"/>
</svg>
